<svg width="159" height="119" viewBox="0 0 159 119" fill="none" xmlns="http://www.w3.org/2000/svg">
<path d="M6.41242 73.8165L6.75004 66.7414L8.0797 66.5544C8.36644 62.1601 10.8084 57.692 14.7581 55.6138C15.3477 53.1061 15.4749 50.469 16.2473 48.0029C17.3226 44.5669 20.2756 43.32 23.5523 42.491C27.2638 41.5535 31.2759 41.3065 35.0984 41.2972C35.1562 40.8354 34.5688 40.7084 34.4578 40.3366C34.2358 39.5839 34.3954 36.5959 35.6927 37.2517C36.2361 37.8359 36.2592 40.2119 36.472 41.0224C36.5298 41.2464 36.6662 41.3619 36.8674 41.1287C37.7415 40.1103 38.345 37.1593 38.8237 35.8408C38.7728 35.5221 36.7032 35.7715 37.6236 33.7926C38.3497 32.2339 41.1223 29.7008 42.6393 28.8603C43.1226 28.5925 44.369 28.3592 44.517 27.8697C44.6418 25.6922 44.8014 23.4962 45.0581 21.3326C45.3888 18.5455 45.6663 13.9042 48.1776 12.1469C49.424 11.2764 50.7629 12.3802 50.7629 13.7471C50.7629 14.8347 49.7662 15.8 49.4124 16.749C49.0239 17.7927 48.8898 19.356 48.7696 20.4898C48.6077 22.0253 48.6262 23.741 48.5129 25.2904C50.0368 24.1035 51.4543 23.1822 53.3528 22.7088C55.5265 22.1662 58.5767 21.9307 60.8267 21.9145C65.0446 21.8822 69.3642 22.7365 73.5845 22.0161C73.9151 19.9009 73.8273 17.6403 74.3268 15.5113C74.6921 13.955 76.2206 10.3574 78.0406 10.2765C79.3586 10.2188 79.9136 10.9531 79.8211 12.2277C79.7379 13.3731 78.8337 14.0635 78.3758 15.0056C77.3214 17.1739 77.6636 19.7647 77.2867 22.0877C79.3401 22.1038 81.3936 21.7829 83.454 21.9122C87.5586 22.1708 93.4831 24.6531 97.4096 26.1748C106.012 29.5115 114.649 33.6125 122.625 38.2353C124.602 39.3807 126.644 40.5445 128.417 41.9692C124.738 40.175 121.117 38.2584 117.394 36.5497C106.759 31.6636 95.5574 27.5257 84.2078 24.6139L77.6289 59.7378L77.9712 59.9295C78.4961 59.7632 79.1043 60.0103 79.1991 59.2945C81.0352 48.9727 83.1326 38.7018 85.4704 28.4862C85.6092 27.8789 85.7572 27.1862 85.9445 26.5997C86 26.4242 85.9884 26.0894 86.2289 26.1309L86.7238 27.5765C85.6716 37.314 83.232 46.9315 81.5601 56.5974C81.4907 56.9946 81.0768 59.1883 81.1832 59.3107L117.618 62.8598L110.792 63.5433L100.679 63.0214L100.048 65.536L98.2907 65.8293C97.5692 65.0188 96.9633 63.8157 95.8233 63.4832C93.749 62.8782 92.2691 65.3975 91.2978 66.8245C90.6318 66.7737 88.1806 67.4919 87.8361 67.0762C87.591 66.7807 87.2765 65.5637 86.8787 65.0003C84.4668 61.5759 81.2109 63.7511 79.6246 66.6259C78.8615 68.0091 79.206 68.9258 77.1225 68.9281L77.9619 67.3279C77.955 66.8661 76.3131 67.4087 75.9408 67.2448L76.4473 69.0944L75.5315 69.2422C75.2818 69.1821 74.8216 67.5242 74.6204 67.1293C73.3324 64.587 70.7679 63.7349 68.0924 63.3701L56.3683 62.8621C57.4621 66.1803 57.5361 69.7294 57.7419 73.2L57.9939 73.454L58.8981 73.5602C57.7488 74.216 56.5671 77.1486 55.7416 77.6958C54.6594 78.414 52.377 78.4717 51.1606 78.0399L50.4623 79.37L55.0178 79.2037L53.7251 82.0739L0 85.6115L6.41011 83.5056L12.4849 82.2402C11.1529 79.5593 10.2326 76.8276 9.95278 73.8165H6.41011H6.41242ZM74.9072 33.8642C75.2263 32.1231 75.4252 30.3358 75.5963 28.5717C75.9408 25.048 75.8877 17.668 77.0855 14.7262C77.5295 13.6386 79.1228 12.4818 78.3758 11.4704C77.8856 11.3249 76.7225 12.8581 76.4704 13.2692C74.7638 16.0401 74.8748 22.8012 74.5834 26.2141C74.4863 27.3525 73.5868 33.1691 73.9822 33.7233L74.9049 33.8642H74.9072ZM45.8998 28.3223C47.2087 27.5026 47.3289 26.669 47.4237 25.2119C47.581 22.7943 47.3937 18.6078 48.2238 16.4049C48.5938 15.4236 50.1987 13.948 49.1835 12.9874C48.8436 12.9066 47.9648 14.1466 47.7868 14.4514C46.5797 16.5343 46.2698 21.3534 46.0686 23.8565C45.9484 25.3366 45.8721 26.8352 45.8998 28.32V28.3223ZM72.8861 24.7963C68.3005 23.547 63.2154 23.3692 58.4634 23.5955C53.7113 23.8218 49.3153 25.138 46.0663 29.0774C45.9091 29.2667 45.657 29.3499 45.731 29.6662C48.3071 28.8026 51.0149 28.2761 53.739 28.1445C56.8053 27.9944 60.3087 27.9551 63.19 28.9989C64.8249 27.939 66.2355 26.4935 68.0878 25.7892C68.3121 25.8746 67.8912 26.1356 67.8195 26.1956C66.2771 27.4633 64.5844 28.5486 63.2825 30.0888C64.1242 30.1534 65.07 29.5992 65.9441 29.3776C68.0554 28.8419 70.2268 28.5555 72.4028 28.4124L72.8861 24.7917V24.7963ZM78.6348 35.0603C78.8892 34.7047 78.2255 30.2389 78.0521 29.493C78.0012 29.2737 77.3283 26.6343 76.7826 27.14L76.1628 33.8065L78.6348 35.0603ZM39.1498 34.386C45.3032 34.0697 51.452 33.7279 57.6332 33.8734C58.2876 33.8896 58.9282 34.1852 59.6473 34.0443C60.3665 33.9034 62.0754 31.9453 62.7691 31.4373C62.7784 31.0193 60.3966 31.2133 59.9803 31.1925C54.0026 30.8646 47.9232 30.9455 41.934 31.1879C41.5755 31.2549 40.713 32.1993 40.4101 32.5295C40.2505 32.705 38.9879 34.2498 39.1475 34.3837L39.1498 34.386ZM44.7182 52.2494H47.1647C47.5948 52.2494 49.5257 52.889 50.0137 53.113C50.9941 53.561 51.7781 54.3322 52.6475 54.9464C52.7169 51.6813 53.4268 48.4463 54.2061 45.2966L55.0109 43.828L53.8269 55.5422L55.8549 58.992L56.2156 52.8636L57.8806 43.3223C57.7141 48.5248 56.988 53.6926 56.1948 58.8234H67.3316C67.8426 53.5679 68.4716 48.3193 69.0174 43.066C69.2625 40.7061 69.0405 37.2632 70.465 35.2427C71.2026 34.1967 72.1161 34.1551 71.7183 32.3702C69.7851 32.3725 66.7442 31.4142 64.9706 32.1162C64.6376 32.2478 64.1404 32.5988 63.8028 32.8043C60.0289 35.0949 57.3441 39.2375 55.108 42.9298C54.0211 42.7635 52.8163 42.7704 51.7156 42.8097C49.7246 42.879 47.6457 43.1191 45.6547 43.1607C40.2274 43.2738 34.7677 42.9667 29.3635 43.3223C29.2756 43.8026 29.4814 43.5971 29.7335 43.701C32.2934 44.7447 33.438 45.6522 32.7374 48.7118C34.1109 48.4232 35.4244 47.8274 36.8165 47.4787C41.231 46.3773 45.9252 46.1418 50.4553 45.8508C48.8551 47.7073 46.8572 49.3422 45.3055 51.238C45.1806 51.3904 44.5771 52.1293 44.7182 52.2517V52.2494ZM54.5044 35.2289H48.7672L43.5365 42.2232L49.1049 42.0546L54.5021 35.2289H54.5044ZM69.1885 61.8461C71.4223 62.7489 73.9568 61.4397 74.7083 59.1952C74.9696 58.4147 75.0991 57.3525 75.2355 56.5212C75.9316 52.314 76.2785 47.8459 76.8034 43.5948C77.0115 41.9022 77.9943 37.5934 77.5873 36.1918C77.3676 35.439 75.705 35.2635 75.0135 35.2219C74.5927 35.1965 73.0503 35.088 72.9208 35.506L70.6037 53.8565C71.42 54.7779 72.4051 54.6693 71.6906 56.2696L70.0094 56.3942L69.6926 57.4726L71.3807 57.6435C71.4824 58.7149 70.4372 59.0636 69.5978 59.3153L69.1908 61.8461H69.1885ZM45.3934 35.3974H42.1028C40.7061 37.508 39.5059 39.7386 38.4815 42.0569C38.5115 42.4218 40.0216 42.3664 40.3268 42.2186L45.3934 35.3974ZM28.0963 43.8234C27.1597 43.7287 26.096 43.8927 25.1433 43.8234C25.1225 44.2136 25.0831 44.1236 25.393 44.1605C26.7527 44.3245 27.5875 44.1074 28.9102 44.8625C31.0238 46.0702 30.7741 47.6773 30.5151 49.7763C29.9647 54.2537 28.6906 58.6826 28.5148 63.1992C28.6212 63.2985 29.3149 62.9752 29.1924 63.4509L27.8419 66.3996L36.4858 67.1224C36.9229 67.2309 37.4201 67.4157 37.7854 67.6766C38.2572 68.0137 38.5439 68.9558 38.8492 68.3786C39.6516 66.8592 39.8851 64.5362 41.0044 63.0353C40.3661 62.996 38.4491 62.5527 38.0421 62.8528C37.5126 63.2431 37.1634 64.7278 36.7911 65.3121C36.7587 65.8085 36.983 65.4529 37.0986 65.282C37.5149 64.6609 37.8224 63.7973 38.4745 63.3701L37.3576 66.2218L29.3635 65.7277L31.3846 62.4418C31.1949 61.9384 29.3496 62.3587 29.3612 62.1024L32.0436 47.929C32.0274 47.354 32.1477 46.6382 32.0737 46.0863C31.8887 44.7009 29.2872 43.9412 28.0986 43.8211L28.0963 43.8234ZM26.9817 66.2149L29.6734 49.6101C31.0816 44.0751 25.2889 43.8396 21.4688 45.1234C17.6602 46.4027 17.6093 48.7326 16.9294 52.217C16.1756 56.0802 15.4911 60.2805 14.9014 64.176C14.8529 64.49 14.5777 66.2957 14.6817 66.402L26.984 66.2149H26.9817ZM55.3462 68.9304C55.1195 67.9075 55.2745 66.8407 55.1774 65.8154C54.1344 54.9072 46.7392 51.455 37.1194 56.3735C34.8463 57.5349 32.4321 59.2298 30.8804 61.2642C32.0552 61.7214 32.7743 60.2389 33.5768 59.5762C35.3481 58.1168 37.5889 56.7498 39.751 55.9647C40.2112 55.944 40.121 55.9925 39.7811 56.1633C38.0606 57.0292 36.1575 58.2438 34.7584 59.5739C34.2243 60.0819 33.4496 60.7331 33.4126 61.5136C33.6785 61.7999 37.3391 58.2046 38.1369 58.3154L34.7631 61.4327C34.7122 61.8738 34.8671 61.5851 35.0105 61.6082C35.7135 61.7121 36.4326 61.666 37.1333 61.7606C38.6295 59.918 40.2066 57.9575 42.5236 57.1355C41.5408 58.0707 38.5439 60.4606 38.3011 61.7653C38.234 62.1278 38.3682 61.9777 38.5578 62.0146C39.4481 62.1901 40.3638 62.2409 41.231 62.5365C44.4013 56.9438 50.5131 55.2443 53.4037 62.1901C54.2732 64.2776 54.3472 66.3742 54.9854 68.3624C55.0571 68.5864 55.0432 68.875 55.3462 68.9281V68.9304ZM14.8482 57.304C14.5569 57.2301 14.5106 57.4241 14.3418 57.5534C13.8516 57.9321 11.8559 60.008 11.7126 60.4906C11.6501 60.6984 11.5854 60.7816 11.812 60.927C11.9322 61.0032 14.5222 60.807 14.6077 60.6823C14.6586 60.1212 15.2067 57.5627 14.8482 57.3017V57.304ZM47.2087 61.0425C46.3161 61.1464 45.2685 62.1093 44.7205 62.7836C42.0311 66.0925 41.6403 72.8144 43.3376 76.6267C44.776 79.8549 48.0573 80.633 49.9767 77.2987C51.9816 73.8211 52.4464 65.7277 49.9188 62.4718C49.3245 61.7052 48.2331 60.9224 47.2087 61.0402V61.0425ZM14.0065 62.3587H11.3911C10.3898 62.3587 10.0499 63.6749 9.78629 64.4623L13.8377 64.3792L14.0088 62.3587H14.0065ZM36.7864 62.5273L32.3419 62.3864L30.7116 64.714L35.8291 65.058C35.9632 65.0257 36.9622 62.7051 36.7864 62.5249V62.5273ZM10.3783 65.3929L9.52267 65.7161L9.46717 66.3004L9.70535 66.5705H12.9104C13.1948 66.5705 13.6851 66.0071 13.4862 65.663L13.248 65.3929H10.3783ZM12.4872 71.1218H35.0151L35.7736 68.4271C27.7471 68.2146 19.6026 67.7944 11.553 68.083C10.4546 68.1222 9.25673 68.4109 8.10051 68.2585L7.76289 72.3041L37.5195 73.1561C37.7762 73.0961 38.2595 70.0619 38.049 69.6116C38.0213 69.5516 37.2651 68.6279 37.2073 68.5979C36.9391 68.4617 36.9252 68.7896 36.8766 68.9351C36.5483 69.9257 36.3378 71.1495 36.2569 72.1955L35.8592 72.4726C29.3774 72.4542 22.9233 71.7822 16.46 71.4543C15.4125 71.4012 14.284 71.5467 13.2457 71.4612C13.0468 71.4451 12.4895 71.4104 12.4872 71.1241V71.1218ZM38.4745 79.8826C38.1346 79.0398 37.6814 78.2454 37.3322 77.4003C37.1218 76.8946 36.7911 75.2482 36.4511 75.0773L27.4395 74.6478L25.1433 80.8917L38.4745 79.8803V79.8826Z" fill="#040404"/>
<path d="M142.969 58.59L139.134 59.0719C135.466 46.889 130.566 35.1119 122.504 25.1911C108.042 7.39286 86.2886 0.16793 65.3782 12.118C60.6464 14.8207 56.2524 18.3121 52.325 22.0756C52.2009 22.1033 52.2124 21.9027 52.2446 21.8266C52.5295 21.1301 54.1382 19.11 54.692 18.3905C67.7016 1.51929 89.2555 -5.60648 108.762 4.98993C125.081 13.8568 134.71 33.0987 140.457 50.0898C141.402 52.8801 142.31 55.7189 142.971 58.59H142.969Z" fill="#ED2401"/>
<path d="M158.381 89.0383V91.7479L0 119L11.8738 102.248L53.9416 94.9587L52.8899 97.6243C52.7884 97.9212 52.5716 97.9699 52.3156 98.0627C51.1715 98.4826 48.8166 98.7286 47.495 98.9698C36.2279 101.016 24.8731 102.658 13.5898 104.612C11.4701 107.802 8.95375 110.757 6.86408 113.968C6.71647 114.193 6.04989 114.993 6.64958 114.94L158.381 89.0359V89.0383Z" fill="#040404"/>
<path d="M158.381 85.7376L11.9856 110.439L14.3721 107.419C62.1363 98.8484 110.137 91.311 157.975 83.048C158.117 83.0087 158.381 83.219 158.381 83.2929V85.7376Z" fill="#ED2401"/>
<path d="M80.6584 84.9716C80.3772 84.686 80.3749 85.0597 80.3081 85.2144C79.2893 87.5468 78.7016 90.6765 77.7773 93.1088L71.9136 94.1727L77.0904 77.7222L77.1273 77.3295L74.4375 77.5009L76.4911 72.3292L89.8343 70.2014C94.0224 70.28 93.8725 73.8999 92.2937 76.9225C90.8807 79.6262 88.5274 81.1922 86.234 82.9939L89.1659 90.8788L83.0094 92.0188L80.6584 84.9693V84.9716ZM81.1678 82.713C82.7836 81.5992 86.7918 79.0859 86.3792 76.7297C86.1695 75.5374 83.8484 76.3585 83.0579 76.5013L81.1678 82.713Z" fill="#040404"/>
<path d="M116.432 66.777L111.827 79.9515C109.711 84.6374 105.428 89.3861 100.125 89.8416C88.6154 90.8295 97.2577 77.0367 97.7204 72.2694C97.7748 71.7046 97.5775 71.1886 97.2327 70.7586C97.0989 70.5913 96.3231 70.3054 96.7314 70.0799L104.68 68.8131C103.675 71.1468 102.783 73.5781 102.028 76.0163C101.626 77.311 100.277 81.3019 100.617 82.3897C100.755 82.836 101.189 83.1451 101.626 83.2172C103.219 83.4799 104.736 82.5152 105.644 81.2485C106.735 79.726 109.148 72.5809 109.597 70.5424C109.808 69.5871 109.876 68.7829 109.81 67.7927L116.432 66.777Z" fill="#040404"/>
<path d="M157.525 59.0719L148.09 69.9838L148.097 70.5845L151.104 80.6468L145.024 81.677L141.995 71.4692L141.643 71.2298L138.057 82.8362L131.842 83.8993L138.974 62.3596L145.022 61.4702L142.4 69.6881L150.338 60.4353L157.525 59.0719Z" fill="#040404"/>
<path d="M129.403 77.8707C129.592 78.1215 127.562 83.343 127.167 83.7423C126.677 84.2369 124.718 85.0077 123.999 85.2027C119.505 86.4192 115.641 85.0053 115.576 79.8187C115.493 73.2529 121.732 65.7236 127.64 63.4669C129.564 62.7309 132.927 61.6862 134.41 63.5203L132.339 69.7401C132.13 70.0304 132.157 69.8214 132.001 69.7448C131.543 69.5173 131.169 69.1969 130.619 69.1017C126.822 68.4516 122.944 72.3219 122.098 75.8323C120.732 81.5019 126.608 79.879 129.399 77.8707H129.403Z" fill="#040404"/>
<path d="M73.626 72.7698L71.2884 78.2534C70.9231 78.65 67.7577 78.3613 67.2862 79.3187L62.4494 95.6828L56.5037 96.741L61.5131 80.391C61.5264 79.9616 57.5153 80.9682 57.15 80.987C58.7571 76.9206 60.8689 74.7854 65.0084 73.9946C67.8418 73.4526 70.7682 73.164 73.6237 72.7698H73.626Z" fill="#040404"/>
<path d="M126.705 35.9568L118.243 31.2826C108.553 26.4479 98.6588 21.9134 88.2865 18.6312L88.1799 18.296L91.0163 16.2662C99.1087 19.3388 107.047 23.2844 114.491 27.6676C118.722 30.1583 122.962 32.8027 126.705 35.9568Z" fill="#ED2401"/>
<path d="M72.7074 70.2481C70.2615 70.1848 67.8727 71.1346 65.4474 71.3124C64.1375 71.4073 61.5385 71.0396 60.4801 71.3538C60.3407 71.3952 60.1281 71.5997 60.1944 71.6703L62.6952 72.0259L59.3623 73.6259C58.656 70.499 58.5462 67.204 57.3599 64.2086L67.7927 64.3766C68.8899 64.7906 70.9724 64.1818 71.7816 65.1024C72.2456 65.6308 72.9908 69.9486 72.7074 70.2481ZM71.8707 70.0704L71.0432 65.531L58.8594 65.2728L60.1098 70.0704H71.8707Z" fill="#040404"/>
<path d="M85.6115 67.7964C84.433 68.0313 84.7312 66.4187 83.4869 66.5718C82.2426 66.7249 82.2544 68.9393 80.4749 68.4067C81.2073 65.7456 84.5246 64.7537 85.6115 67.7943V67.7964Z" fill="#040404"/>
<path d="M95.3451 65.8342L95.0744 65.93L95.2116 66.3988L93.3164 66.777C93.8672 65.2462 95.1504 64.1661 95.8848 66.1191C95.5955 66.6527 95.4063 66.36 95.3451 65.8368V65.8342Z" fill="#040404"/>
<path d="M82.2024 68.4892C81.9752 67.9405 84.3298 67.2519 84.7212 67.8882C85.0558 68.4369 82.8369 68.4231 82.2024 68.4892Z" fill="#040404"/>
<path d="M64.9783 59.0694C64.7087 59.1086 64.8318 58.6863 64.8255 58.4832C64.6875 54.6176 65.4837 50.4727 65.7554 46.6094C65.2586 46.704 62.6067 46.4802 62.4963 45.9886L63.4539 36.2749C63.577 35.8457 65.2735 35.9565 65.6641 36.0118C66.7108 36.1595 67.5092 36.7319 67.6132 37.9343C67.747 39.4713 67.1673 42.7738 66.972 44.4793C66.4115 49.3511 65.6684 54.2206 64.9783 59.0694ZM66.0633 45.5963L66.3435 37.8004C66.1355 37.0481 64.3605 37.025 63.7384 37.0088L63.5919 44.9178L66.0633 45.5963Z" fill="#040404"/>
<path d="M62.4962 35.1007C61.7512 38.0832 62.2514 43.4593 60.9294 46.0436C59.2796 49.2722 59.7133 44.0577 59.6075 43.1287C59.5307 42.4458 59.0077 41.5458 59.0783 40.9064C59.2423 39.4344 61.6454 36.3289 62.4962 35.1031V35.1007Z" fill="#040404"/>
<path d="M26.5003 56.7333C26.5659 57.0594 26.5893 58.4913 26.2402 58.5723C23.1892 58.2646 20.103 58.341 17.1223 59.0719L17.2934 56.879C18.4346 56.5852 26.2167 56.2822 26.5026 56.7333H26.5003Z" fill="#040404"/>
<path d="M26.5396 53.2965L26.0868 55.4813C23.0744 54.7944 20.123 55.1317 17.1223 55.6475L17.2912 53.4751C20.3552 53.1973 23.4779 52.8427 26.5372 53.2965H26.5396Z" fill="#040404"/>
<path d="M25.6834 62.7479L25.5237 64.8568L16.2661 65.0647L16.6816 62.9443C19.6691 62.6699 22.7025 62.2048 25.6812 62.7479H25.6834Z" fill="#040404"/>
<path d="M25.6834 60.0803L25.5181 61.3818C22.4213 61.3675 19.3426 61.2463 16.2661 61.6403L16.5944 60.3067C16.7483 60.0767 18.8287 59.9626 19.3131 59.9448C20.0919 59.9163 25.457 59.9038 25.6811 60.0821L25.6834 60.0803Z" fill="#040404"/>
<path d="M27.3958 49.8537L27.0532 52.6179C24.0752 51.9892 20.9189 52.163 17.9785 53.0791L18.1756 50.6972L18.4338 50.3528C21.4094 49.661 24.3897 49.4588 27.3958 49.8569V49.8537Z" fill="#040404"/>
<path d="M27.3813 49.3175C24.2789 48.687 21.0428 48.9272 17.9785 49.6547C18.1623 47.5807 20.4867 47.2366 22.2384 47.1211C23.8827 47.0149 27.6582 47.008 27.3813 49.3175Z" fill="#040404"/>
<path d="M46.6516 62.5353C48.025 62.2474 49.1177 63.6167 49.6014 64.663C50.9999 67.6989 50.7367 72.5161 49.1478 75.4631C47.5363 78.4545 45.1127 78.9531 43.6365 75.5286C42.2857 72.3921 42.609 67.5164 44.4135 64.5483C44.8521 63.8251 45.7393 62.7273 46.6516 62.5353ZM47.2029 64.5811C45.1954 64.9744 44.1754 68.984 44.1328 70.6108C44.0927 72.0948 44.6691 74.7866 46.0601 75.655C48.2831 77.0407 49.6941 72.5981 49.817 71.1351C49.9398 69.6722 49.9347 64.0451 47.2004 64.5811H47.2029Z" fill="#040404"/>
<path d="M46.1847 66.7782C46.353 66.7634 46.742 66.884 46.895 66.9824C48.7353 68.1511 47.9638 75.3357 46.0295 75.3381C43.6493 75.3381 44.3728 66.9504 46.1847 66.7782ZM46.2699 72.9835C47.2578 72.4594 47.6381 68.5104 46.6502 68.3234C45.9923 68.1979 45.5202 70.3828 45.4721 70.9191C45.4415 71.2636 45.3017 72.0731 45.7891 71.9058L46.4273 69.5708L46.2721 72.981L46.2699 72.9835Z" fill="#040404"/>
</svg>
